<svg xmlns="http://www.w3.org/2000/svg" version="1.1" xmlns:xlink="http://www.w3.org/1999/xlink" width="512" height="512"><svg xmlns:dc="http://purl.org/dc/elements/1.1/" xmlns:cc="http://creativecommons.org/ns#" xmlns:rdf="http://www.w3.org/1999/02/22-rdf-syntax-ns#" xmlns:svg="http://www.w3.org/2000/svg" xmlns="http://www.w3.org/2000/svg" xmlns:sodipodi="http://sodipodi.sourceforge.net/DTD/sodipodi-0.dtd" xmlns:inkscape="http://www.inkscape.org/namespaces/inkscape" width="512" height="512" viewBox="0 0 135.46665 135.46665" version="1.1" id="SvgjsSvg1024" inkscape:version="1.0.2-2 (e86c870879, 2021-01-15)" sodipodi:docname="favicon.svg">
  <defs id="SvgjsDefs1023"></defs>
  <sodipodi:namedview id="SvgjsSodipodi:namedview1022" pagecolor="#ffffff" bordercolor="#666666" borderopacity="1.0" inkscape:pageopacity="0.0" inkscape:pageshadow="2" inkscape:zoom="5.6" inkscape:cx="243.92729" inkscape:cy="399.25652" inkscape:document-units="px" inkscape:current-layer="layer1" inkscape:document-rotation="0" showgrid="false" units="px" inkscape:window-width="1267" inkscape:window-height="1008" inkscape:window-x="577" inkscape:window-y="0" inkscape:window-maximized="0"></sodipodi:namedview>
  <metadata id="SvgjsMetadata1021">
    <rdf:rdf>
      <cc:work rdf:about="">
        <dc:format>image/svg+xml</dc:format>
        <dc:type rdf:resource="http://purl.org/dc/dcmitype/StillImage"></dc:type>
        <dc:title></dc:title>
      </cc:work>
    </rdf:rdf>
  </metadata>
  <g inkscape:groupmode="layer" id="SvgjsG1020" inkscape:label="Layer 2"></g>
  <g inkscape:label="Layer 1" inkscape:groupmode="layer" id="SvgjsG1019">
    <g aria-label="d" class="icon-color" id="SvgjsG1018" style="font-size:3.52777px;line-height:1.25;font-family:Montserrat;-inkscape-font-specification:'Montserrat, @wght=400';font-variation-settings:'wght' 400;stroke-width:0.264583;fill-opacity:1" transform="matrix(31.71622,0,0,31.71622,-1547.0505,-3744.4009)">
      <path id="SvgjsPath1017" class="icon-color" style="font-style:normal;font-variant:normal;font-weight:normal;font-stretch:normal;font-size:4.23333px;font-family:'Argue DEMO';-inkscape-font-specification:'Argue DEMO, Normal';font-variant-ligatures:normal;font-variant-caps:normal;font-variant-numeric:normal;font-variant-east-asian:normal;fill-opacity:1;stroke-width:31.7162" d="M 212.10352,61.896484 V 206.96289 c 2.00848,2.45541 13.52985,16.67896 21.27148,29.62695 11.24084,18.80222 17.81683,31.75832 22.36914,41.55274 V 61.896484 Z M 122.79102,183.17969 C 37.537874,183.17969 1,249.65594 1,316.64062 c 0,66.47765 36.030334,133.4629 121.79102,133.4629 43.13404,0 71.04323,-16.2396 82.71484,-45.67188 -11.67197,21.31332 -32.98522,32.98438 -64.95508,32.98438 -58.357837,0 -91.849608,-75.10394 -91.849608,-142.59571 0,-54.80565 21.82057,-104.02929 70.029298,-104.02929 42.61545,0 72.69871,37.22173 86.95703,82.50781 l 53.40234,147.64453 0.0117,1.24023 7.81055,20.23633 h 8.62695 l 28.92578,-81.19336 c 13.70143,-39.07361 21.3125,-72.5653 21.3125,-97.43164 0,-12.68609 -2.02976,-23.34349 -6.08984,-31.9707 1.01891,2.54129 3.04492,8.63121 3.04492,20.80664 0,18.7756 -4.56608,51.76 -23.84961,106.05859 l -9.64258,26.89453 -33.46484,-89.54882 -0.0312,0.004 v -0.084 c -13.50353,-36.06911 -43.64062,-75.22461 -43.64062,-75.22461 -17.25361,-22.32744 -45.67092,-37.55078 -89.3125,-37.55078 z m 196.89648,48.64453 c 0,-1.04289 -0.50391,-1.52149 -0.50391,-1.52149 0,0.5634 0.50391,1.042 0.50391,1.52149 z m -10.14844,-43.13281 97.93946,253.72851 h 8.62695 L 511,188.69141 h -33.49219 c 0,0 7.10547,12.17856 7.10547,32.47656 0,9.13427 -1.52391,20.29948 -5.58398,32.47851 l -49.22266,131.9375 -73.58203,-196.89257 z m -97.43554,123.47851 v 130.32227 h 43.64062 v -11.36328 z" transform="matrix(0.00834221,0,0,0.00834221,48.777897,118.05949)" sodipodi:nodetypes="ccccccssscsssccccccscsccccccsccccccccsccccccccc"></path>
    </g>
    <g aria-label="w" class="icon-color" id="SvgjsG1016" style="font-size:3.52777px;line-height:1.25;font-family:Montserrat;-inkscape-font-specification:'Montserrat, @wght=400';font-variation-settings:'wght' 400;stroke-width:0.265;stroke-miterlimit:4;stroke-dasharray:none;fill-opacity:1" transform="matrix(31.71622,0,0,31.71622,-1547.0505,-3744.4009)"></g>
  </g>
</svg><style>@media (prefers-color-scheme: light) { :root { filter: none; } }
@media (prefers-color-scheme: dark) { :root { filter: invert(100%); } }
</style></svg>